<?xml version="1.0" standalone="no"?>
<!DOCTYPE svg PUBLIC "-//W3C//DTD SVG 20010904//EN"
 "http://www.w3.org/TR/2001/REC-SVG-20010904/DTD/svg10.dtd">
<svg version="1.0" xmlns="http://www.w3.org/2000/svg"
 width="1208.000000pt" height="1208.000000pt" viewBox="0 0 1208.000000 1208.000000"
 preserveAspectRatio="xMidYMid meet">
<metadata>
Created by potrace 1.11, written by Peter Selinger 2001-2013
</metadata>
<g transform="translate(0.000000,1208.000000) scale(0.100000,-0.100000)"
fill="#000000" stroke="none">
<path d="M5807 10018 c-13 -18 -98 -134 -187 -258 -90 -123 -167 -229 -172
-235 -5 -5 -114 -156 -243 -335 -130 -179 -242 -333 -249 -342 -8 -9 -19 -25
-25 -36 -6 -11 -17 -26 -24 -34 -7 -7 -28 -35 -47 -63 -18 -27 -36 -52 -39
-55 -3 -3 -17 -21 -31 -40 -13 -19 -28 -39 -32 -45 -5 -5 -74 -100 -153 -210
-79 -110 -148 -204 -152 -210 -5 -5 -49 -66 -98 -135 -50 -69 -105 -145 -123
-170 -51 -69 -60 -81 -212 -290 -77 -107 -146 -202 -153 -210 -7 -8 -20 -27
-29 -41 -9 -14 -23 -32 -30 -40 -8 -8 -23 -30 -35 -49 -12 -19 -30 -44 -40
-56 -10 -11 -22 -27 -28 -36 -5 -9 -54 -77 -107 -150 -116 -158 -106 -145
-206 -283 -44 -60 -87 -118 -96 -127 -9 -10 -16 -21 -16 -24 0 -6 -47 -71 -67
-91 -6 -7 -21 -29 -34 -50 -13 -21 -29 -42 -36 -46 -7 -4 -13 -14 -13 -22 0
-7 -4 -15 -8 -17 -4 -1 -30 -34 -57 -73 -27 -38 -54 -75 -60 -82 -17 -20 -28
-36 -65 -88 -19 -28 -38 -54 -42 -60 -19 -23 -146 -198 -178 -245 -19 -28 -42
-59 -51 -68 -9 -9 -31 -39 -49 -67 -30 -43 -224 -312 -247 -340 -5 -5 -31 -41
-58 -80 -27 -38 -53 -74 -57 -80 -12 -15 -105 -143 -168 -231 -30 -43 -63 -86
-72 -96 -10 -10 -17 -20 -15 -22 1 -2 -10 -17 -25 -34 -14 -16 -32 -40 -38
-53 -11 -21 -27 -42 -69 -95 -5 -6 -26 -35 -47 -65 -21 -30 -48 -67 -61 -84
-29 -38 -26 -33 -102 -140 -36 -49 -67 -92 -70 -95 -4 -3 -22 -29 -41 -57 -19
-29 -38 -53 -42 -53 -5 0 -8 -7 -8 -15 0 -8 -3 -15 -7 -15 -5 0 -19 -18 -33
-40 -13 -22 -28 -40 -32 -40 -4 0 -8 -5 -8 -11 0 -6 -14 -29 -31 -50 -16 -21
-57 -76 -89 -121 -32 -46 -63 -88 -69 -95 -6 -7 -22 -28 -34 -47 -13 -19 -38
-52 -55 -74 -18 -22 -32 -43 -32 -46 0 -3 -7 -14 -16 -23 -8 -10 -43 -56 -76
-103 -34 -47 -80 -110 -102 -140 -23 -30 -49 -66 -59 -80 -9 -14 -41 -59 -72
-100 -30 -41 -81 -111 -112 -155 -31 -44 -60 -81 -65 -83 -4 -2 -8 -10 -8 -17
0 -8 -6 -18 -13 -22 -7 -4 -30 -34 -51 -65 -21 -32 -46 -66 -55 -76 -9 -10
-20 -25 -26 -34 -10 -17 -327 -455 -342 -473 -5 -5 -28 -38 -52 -73 -24 -34
-48 -62 -52 -62 -5 0 -9 -4 -9 -10 0 -7 362 -10 1068 -10 l1067 0 90 126 c98
136 102 142 142 195 16 20 35 47 43 59 8 13 24 35 36 49 11 14 67 91 124 171
57 80 113 157 124 171 12 14 28 36 36 48 16 23 330 456 365 503 11 15 36 49
55 75 19 26 41 54 48 61 6 7 12 17 12 22 0 5 6 15 13 22 7 7 28 35 47 63 19
27 41 56 48 63 13 14 87 119 107 151 6 9 12 18 15 21 3 3 18 23 35 45 16 22
31 42 34 45 4 3 11 12 16 21 15 25 128 183 135 189 3 3 28 37 55 75 27 39 51
72 54 75 3 3 22 28 41 55 19 28 38 55 42 60 5 6 40 53 78 105 38 52 74 100 79
107 6 7 11 15 11 17 0 3 7 14 15 23 8 10 44 59 80 108 35 50 72 100 81 112 31
43 139 191 154 213 8 12 23 31 32 43 9 12 39 54 67 92 28 39 54 75 58 80 5 6
24 33 43 60 19 28 37 52 40 55 3 3 23 30 45 60 21 30 62 87 90 125 54 74 164
225 191 262 163 226 358 492 369 506 8 9 15 21 15 27 0 5 6 13 13 17 6 4 17
16 22 25 10 16 166 233 182 253 5 6 20 26 33 45 13 19 28 40 33 45 11 13 188
257 207 285 8 12 24 34 35 48 11 15 64 87 117 162 53 74 103 142 110 150 7 8
24 30 37 50 13 19 26 37 30 40 3 3 20 25 36 50 36 54 44 65 68 91 9 10 17 21
17 24 0 3 26 40 58 83 31 43 77 106 102 141 25 34 55 75 67 89 13 15 23 33 23
40 0 6 3 12 8 12 4 0 21 20 37 45 17 24 33 45 38 45 4 0 7 5 7 10 0 6 5 16 10
23 6 7 29 37 51 67 22 30 45 62 52 70 7 9 28 38 47 65 19 28 38 55 42 60 4 6
18 24 31 40 12 17 34 47 47 67 14 21 28 38 33 38 4 0 7 4 7 10 0 5 19 36 43
67 24 32 64 87 91 123 26 36 54 73 62 83 8 9 14 21 14 26 0 5 3 11 8 13 4 2
25 28 47 58 22 30 43 57 47 58 5 2 8 8 8 13 0 5 24 41 53 79 28 39 70 95 92
126 22 30 46 61 53 69 6 7 12 16 12 19 0 5 92 131 120 163 5 7 10 16 10 22 0
5 3 11 8 13 4 2 25 28 47 58 22 30 43 60 48 65 13 17 191 262 207 286 8 12 29
40 45 63 17 23 34 47 39 54 6 9 -208 12 -1058 12 l-1065 0 -24 -32z"/>
<path d="M8346 9868 c-116 -160 -184 -255 -262 -361 -17 -23 -58 -80 -92 -127
-34 -47 -65 -90 -70 -96 -5 -5 -14 -20 -21 -31 -6 -12 -17 -27 -24 -35 -12
-12 -63 -83 -231 -318 -33 -47 -65 -90 -71 -96 -5 -6 -17 -22 -25 -34 -15 -22
-79 -111 -102 -142 -7 -9 -20 -26 -28 -38 -18 -26 -65 -90 -80 -107 -6 -7 -8
-13 -5 -13 3 0 -3 -8 -12 -18 -10 -10 -32 -38 -49 -63 -17 -24 -93 -129 -168
-234 -76 -104 -145 -201 -154 -214 -9 -12 -25 -34 -36 -47 -54 -72 -126 -176
-126 -184 0 -4 -7 -10 -15 -14 -8 -3 -15 -12 -15 -21 0 -8 -4 -15 -8 -15 -5 0
-27 -27 -50 -61 l-42 -61 0 -2526 c0 -1556 4 -2543 10 -2568 5 -23 15 -54 21
-70 7 -16 13 -31 13 -34 4 -18 51 -90 60 -90 5 0 7 -3 3 -6 -9 -9 100 -111
151 -141 25 -15 75 -37 111 -50 l65 -23 1846 0 1846 0 57 75 c31 41 57 77 57
81 0 3 6 11 13 18 14 15 25 29 119 161 40 55 78 106 85 113 7 7 13 17 13 21 0
4 8 16 18 27 10 10 33 42 52 69 18 28 39 57 47 65 7 8 31 40 53 70 21 30 44
60 50 67 5 7 10 17 10 23 0 5 4 10 8 10 4 0 15 12 24 28 9 15 26 38 37 52 11
14 54 72 95 130 41 58 79 110 83 115 5 6 22 28 38 50 40 56 90 123 178 245 43
58 83 114 91 125 8 11 46 63 85 116 39 53 71 101 71 105 0 5 -784 8 -1748 8
-1542 -1 -1750 0 -1772 14 -41 25 -61 50 -63 82 -1 16 -4 30 -7 30 -8 0 -4
146 4 159 4 6 4 11 -1 11 -10 0 -9 292 1 308 4 7 4 12 -1 12 -4 0 -8 92 -8
205 0 113 4 205 8 205 5 0 5 5 1 12 -10 16 -11 328 -1 328 5 0 5 6 1 12 -9 14
-12 318 -4 318 3 0 6 9 6 20 0 11 -3 20 -6 20 -8 0 -5 304 3 318 5 6 5 12 0
12 -4 0 -8 59 -8 130 0 72 4 130 8 130 5 0 5 6 0 12 -10 17 -11 159 0 181 4 9
4 17 0 17 -4 0 -8 92 -8 205 0 113 4 205 8 205 5 0 5 6 1 12 -10 17 -12 167
-2 196 4 12 4 22 0 22 -4 0 -7 92 -7 205 0 113 4 205 8 205 5 0 5 5 1 12 -10
16 -11 328 -1 328 5 0 5 6 1 12 -9 14 -12 318 -4 318 3 0 6 9 6 20 0 11 -3 20
-6 20 -8 0 -5 304 3 318 5 6 5 12 0 12 -4 0 -8 59 -8 130 0 72 4 130 8 130 5
0 5 6 0 12 -10 17 -11 159 0 181 4 9 4 17 0 17 -4 0 -8 92 -8 205 0 113 4 205
8 205 5 0 5 6 1 12 -10 17 -12 167 -2 196 4 12 4 22 0 22 -9 0 -8 392 1 407 4
7 3 14 -1 17 -5 3 -8 21 -5 41 2 19 1 35 -1 35 -3 0 -61 -78 -130 -172z"/>
</g>
</svg>
